<svg width="118" height="43" viewBox="0 0 118 43" fill="none" xmlns="http://www.w3.org/2000/svg">
<path d="M81.5805 32.923L76.1193 9.51801L102.177 8.89388L99.6803 19.1921L103.425 7.80165L75.1831 8.26975L80.9563 36.1997L99.5243 35.5755L109.354 5.46116L116.22 3.58876L117.468 0L106.858 2.02843L98.7441 32.1428L81.5805 32.923Z" fill="#FF9350"/>
<ellipse cx="83.765" cy="39.7884" rx="1.8724" ry="2.49653" fill="#FF9350"/>
<ellipse cx="95.1553" cy="39.7884" rx="1.71636" ry="2.49653" fill="#FF9350"/>
<path d="M12.0975 20.0228C12.0519 21.0123 11.785 21.8878 11.2968 22.6494C10.8086 23.4045 10.1219 23.9903 9.2366 24.4069C8.35783 24.8235 7.35213 25.0318 6.2195 25.0318C4.35131 25.0318 2.88019 24.4232 1.80614 23.2059C0.732092 21.9887 0.195068 20.2702 0.195068 18.0505V17.3475C0.195068 15.9545 0.435915 14.7372 0.91761 13.6957C1.40581 12.6477 2.10557 11.8405 3.01689 11.2742C3.9282 10.7014 4.98272 10.415 6.18044 10.415C7.90543 10.415 9.29193 10.8706 10.3399 11.7819C11.3879 12.6868 11.9836 13.9366 12.1268 15.5314H8.70934C8.6833 14.6656 8.46524 14.044 8.05515 13.6664C7.64506 13.2889 7.02015 13.1001 6.18044 13.1001C5.32772 13.1001 4.70282 13.4191 4.30574 14.057C3.90867 14.6949 3.70037 15.7136 3.68084 17.1131V18.1188C3.68084 19.6355 3.86961 20.7193 4.24716 21.3703C4.63121 22.0212 5.28866 22.3467 6.2195 22.3467C7.00714 22.3467 7.60925 22.1612 8.02585 21.7901C8.44246 21.4191 8.66377 20.83 8.68981 20.0228H12.0975Z" fill="#FF9350"/>
<path d="M25.7574 18.0212C25.7574 19.4077 25.5003 20.6347 24.986 21.7022C24.4718 22.7698 23.7395 23.5932 22.7891 24.1726C21.8453 24.7454 20.768 25.0318 19.5572 25.0318C18.3465 25.0318 17.2724 24.7551 16.3351 24.2018C15.3977 23.642 14.6654 22.8446 14.1382 21.8097C13.6174 20.7747 13.344 19.5867 13.318 18.2458V17.4451C13.318 16.0521 13.5718 14.8251 14.0796 13.7641C14.5938 12.6965 15.3261 11.8731 16.2765 11.2937C17.2334 10.7144 18.3204 10.4247 19.5377 10.4247C20.7419 10.4247 21.816 10.7112 22.7598 11.284C23.7037 11.8568 24.436 12.6737 24.9568 13.7348C25.484 14.7893 25.7509 16 25.7574 17.367V18.0212ZM22.2716 17.4256C22.2716 16.013 22.034 14.9423 21.5589 14.2132C21.0902 13.4776 20.4165 13.1099 19.5377 13.1099C17.8192 13.1099 16.9112 14.3987 16.8135 16.9764L16.8038 18.0212C16.8038 19.4142 17.0348 20.485 17.497 21.2336C17.9592 21.9822 18.6459 22.3564 19.5572 22.3564C20.423 22.3564 21.0902 21.9887 21.5589 21.2531C22.0275 20.5175 22.2651 19.4598 22.2716 18.0798V17.4256Z" fill="#FF9350"/>
<path d="M27.5247 24.8365V10.62H32.6313C34.4605 10.62 35.8502 10.9553 36.8006 11.6257C37.7575 12.2962 38.2359 13.2693 38.2359 14.5452C38.2359 15.2807 38.0667 15.9089 37.7282 16.4296C37.3897 16.9504 36.8917 17.3345 36.2343 17.5818C36.9763 17.7771 37.5459 18.1416 37.943 18.6754C38.34 19.2092 38.5386 19.8601 38.5386 20.6282C38.5386 22.0212 38.0959 23.0692 37.2107 23.7722C36.3319 24.4687 35.0268 24.8235 33.2953 24.8365H27.5247ZM30.9519 18.7926V22.2002H33.1976C33.816 22.2002 34.2912 22.0603 34.6232 21.7804C34.9552 21.4939 35.1212 21.0936 35.1212 20.5794C35.1212 19.3947 34.5321 18.7991 33.3539 18.7926H30.9519ZM30.9519 16.5468H32.7387C33.4873 16.5403 34.0211 16.4036 34.34 16.1367C34.659 15.8698 34.8185 15.476 34.8185 14.9553C34.8185 14.3564 34.646 13.9268 34.301 13.6664C33.956 13.3995 33.3994 13.2661 32.6313 13.2661H30.9519V16.5468Z" fill="#FF9350"/>
<path d="M0 31.2167C0 30.9251 0.0563799 30.649 0.16914 30.3885C0.2819 30.1241 0.435486 29.8928 0.6299 29.6945C0.824313 29.4962 1.05178 29.3406 1.31229 29.2279C1.57281 29.1112 1.85276 29.0529 2.15216 29.0529C2.44767 29.0529 2.72568 29.1112 2.98619 29.2279C3.25059 29.3406 3.48195 29.4962 3.68025 29.6945C3.87855 29.8928 4.03408 30.1241 4.14684 30.3885C4.26349 30.649 4.32181 30.9251 4.32181 31.2167C4.32181 31.5161 4.26932 31.7961 4.16434 32.0566C4.05935 32.3171 3.91355 32.5562 3.72691 32.774L4.45596 32.7215V33.328H2.60709C2.52932 33.3436 2.4535 33.3553 2.37962 33.363C2.30574 33.3708 2.22992 33.3747 2.15216 33.3747C1.85276 33.3747 1.57281 33.3183 1.31229 33.2056C1.05178 33.0928 0.824313 32.9392 0.6299 32.7448C0.435486 32.5465 0.2819 32.3171 0.16914 32.0566C0.0563799 31.7961 0 31.5161 0 31.2167ZM0.635732 31.2225C0.635732 31.4364 0.674615 31.6386 0.75238 31.8291C0.834034 32.0158 0.942906 32.1791 1.079 32.319C1.21897 32.459 1.38228 32.5698 1.56892 32.6515C1.75555 32.7331 1.9558 32.774 2.16966 32.774C2.37962 32.774 2.57598 32.7331 2.75873 32.6515C2.94537 32.5698 3.10673 32.459 3.24282 32.319C3.3828 32.1791 3.49167 32.0158 3.56943 31.8291C3.65109 31.6386 3.69191 31.4345 3.69191 31.2167C3.69191 31.0029 3.65109 30.8026 3.56943 30.616C3.48778 30.4255 3.37696 30.2602 3.23699 30.1202C3.1009 29.9802 2.93953 29.8694 2.7529 29.7878C2.56626 29.7061 2.36796 29.6653 2.15799 29.6653C1.94802 29.6653 1.74972 29.7061 1.56309 29.7878C1.37645 29.8694 1.21508 29.9802 1.079 30.1202C0.942906 30.2602 0.834034 30.4255 0.75238 30.616C0.674615 30.8065 0.635732 31.0087 0.635732 31.2225Z" fill="#FF9350"/>
<path d="M8.3202 33.3805H7.90027L7.84194 32.704C7.75251 32.9023 7.62614 33.0656 7.46284 33.1939C7.30342 33.3222 7.09928 33.3864 6.85044 33.3864C6.60159 33.3864 6.40328 33.3203 6.25553 33.1881C6.11166 33.052 6.03584 32.8751 6.02807 32.6573V30.8901H6.52382V32.4357C6.5316 32.5562 6.57437 32.6593 6.65213 32.7448C6.73379 32.8303 6.85821 32.8789 7.02541 32.8906C7.14206 32.8906 7.24898 32.8712 7.34619 32.8323C7.4434 32.7895 7.52699 32.7331 7.59698 32.6632C7.66697 32.5932 7.72141 32.5096 7.76029 32.4124C7.79917 32.3152 7.81861 32.2082 7.81861 32.0916V30.8901H8.3202V33.3805Z" fill="#FF9350"/>
<path d="M10.1503 29.9569C10.1503 29.8636 10.1834 29.7858 10.2495 29.7236C10.3195 29.6614 10.3934 29.6303 10.4711 29.6303C10.5489 29.6303 10.6208 29.6614 10.6869 29.7236C10.753 29.7858 10.7861 29.8636 10.7861 29.9569C10.7861 30.0502 10.753 30.128 10.6869 30.1902C10.6208 30.2485 10.5489 30.2777 10.4711 30.2777C10.3934 30.2777 10.3195 30.2485 10.2495 30.1902C10.1834 30.128 10.1503 30.0502 10.1503 29.9569ZM10.7103 33.328H10.2145V30.8901H10.7103V33.328Z" fill="#FF9350"/>
<path d="M14.2393 32.7273C14.2938 32.7934 14.3443 32.8576 14.391 32.9198C14.4415 32.9781 14.4921 33.0403 14.5426 33.1064C14.4337 33.192 14.3113 33.26 14.1752 33.3105C14.0391 33.3611 13.8913 33.3864 13.7319 33.3864C13.553 33.3864 13.3839 33.3533 13.2245 33.2872C13.0689 33.2172 12.9329 33.1239 12.8162 33.0073C12.6996 32.8906 12.6062 32.7545 12.5363 32.599C12.4702 32.4435 12.4371 32.2782 12.4371 32.1032C12.4371 31.9283 12.4702 31.763 12.5363 31.6075C12.6062 31.452 12.6996 31.3178 12.8162 31.205C12.9329 31.0884 13.0689 30.997 13.2245 30.9309C13.3839 30.8609 13.553 30.8259 13.7319 30.8259C13.8952 30.8259 14.0449 30.8512 14.181 30.9018C14.321 30.9523 14.4473 31.0204 14.5601 31.1059L14.2393 31.485C14.1732 31.4306 14.0974 31.3897 14.0119 31.3625C13.9263 31.3314 13.833 31.3159 13.7319 31.3159C13.6153 31.3159 13.5083 31.3372 13.4111 31.38C13.3139 31.4189 13.2284 31.4733 13.1545 31.5433C13.0845 31.6133 13.0301 31.6969 12.9912 31.7941C12.9523 31.8874 12.9329 31.9905 12.9329 32.1032C12.9329 32.216 12.9523 32.321 12.9912 32.4182C13.0301 32.5115 13.0845 32.5951 13.1545 32.669C13.2284 32.739 13.3139 32.7954 13.4111 32.8381C13.5083 32.877 13.6153 32.8964 13.7319 32.8964C13.833 32.8964 13.9263 32.8828 14.0119 32.8556C14.0974 32.8245 14.1732 32.7817 14.2393 32.7273Z" fill="#FF9350"/>
<path d="M17.9605 30.8259L18.2579 31.1234C18.1102 31.2595 17.9683 31.3917 17.8322 31.52C17.7 31.6483 17.56 31.7825 17.4122 31.9224C17.5872 32.1557 17.7583 32.391 17.9255 32.6282C18.0927 32.8615 18.2618 33.0947 18.4329 33.328H17.8613C17.7291 33.1453 17.595 32.9664 17.4589 32.7915C17.3267 32.6126 17.1945 32.4318 17.0623 32.249L16.724 32.5582V33.328H16.2283V28.7963H16.724V31.9749C16.9418 31.7766 17.1498 31.5861 17.3481 31.4034C17.5464 31.2167 17.7505 31.0242 17.9605 30.8259Z" fill="#FF9350"/>
<path d="M25.9092 33.328H25.3143C25.2832 33.2892 25.2482 33.2483 25.2093 33.2056C25.1782 33.1667 25.1393 33.122 25.0927 33.0714C25.0499 33.017 25.0013 32.9567 24.9468 32.8906C24.8224 33.0384 24.6591 33.1589 24.4569 33.2522C24.2586 33.3417 24.0331 33.3864 23.7804 33.3864C23.5782 33.3864 23.3915 33.3553 23.2205 33.293C23.0533 33.2308 22.9074 33.1434 22.783 33.0306C22.6625 32.9178 22.5672 32.7856 22.4972 32.634C22.4311 32.4785 22.3981 32.3093 22.3981 32.1266C22.3981 31.971 22.4234 31.8252 22.4739 31.6891C22.5245 31.553 22.5944 31.4325 22.6839 31.3275C22.7733 31.2187 22.8783 31.1253 22.9988 31.0476C23.1194 30.9698 23.2516 30.9115 23.3954 30.8726C23.341 30.7909 23.2924 30.7151 23.2496 30.6451C23.2068 30.5713 23.1699 30.5071 23.1388 30.4527C23.0766 30.3282 23.026 30.2155 22.9872 30.1144C22.9483 30.0094 22.9288 29.8966 22.9288 29.7761C22.9288 29.6439 22.9541 29.5253 23.0047 29.4203C23.0591 29.3115 23.131 29.2201 23.2205 29.1462C23.3138 29.0723 23.4207 29.016 23.5412 28.9771C23.6657 28.9343 23.7959 28.911 23.932 28.9071C24.1186 28.8993 24.2878 28.9207 24.4394 28.9712C24.5911 29.0218 24.7116 29.0782 24.801 29.1404C24.801 29.1404 24.7855 29.1618 24.7544 29.2045C24.7272 29.2434 24.6961 29.2862 24.6611 29.3328C24.6299 29.3795 24.5988 29.4242 24.5677 29.467C24.5405 29.5059 24.5269 29.5273 24.5269 29.5311C24.4841 29.5 24.4316 29.4728 24.3694 29.4495C24.3072 29.4223 24.2353 29.4048 24.1536 29.397C24.072 29.3853 23.9903 29.3853 23.9087 29.397C23.827 29.4087 23.7531 29.432 23.687 29.467C23.6209 29.502 23.5665 29.5506 23.5237 29.6128C23.4849 29.675 23.4654 29.7508 23.4654 29.8403C23.4654 29.9452 23.4849 30.0386 23.5237 30.1202C23.5626 30.2019 23.5898 30.2524 23.6054 30.2719L24.8769 31.9633L25.3201 30.8259H25.8509L25.221 32.424L25.9092 33.328ZM23.7104 31.3159C23.6054 31.3198 23.5043 31.3431 23.4071 31.3859C23.3099 31.4247 23.2224 31.4792 23.1446 31.5492C23.0708 31.6191 23.0105 31.7027 22.9638 31.8C22.9211 31.8933 22.8997 31.9924 22.8997 32.0974C22.8997 32.2374 22.9249 32.3579 22.9755 32.459C23.0299 32.5562 23.0999 32.6379 23.1855 32.704C23.271 32.7701 23.3682 32.8187 23.4771 32.8498C23.5898 32.8809 23.7026 32.8964 23.8154 32.8964C23.8931 32.8964 23.9728 32.8867 24.0545 32.8673C24.1361 32.8478 24.2139 32.8226 24.2878 32.7915C24.3617 32.7565 24.4297 32.7156 24.4919 32.669C24.5541 32.6223 24.6047 32.5718 24.6436 32.5173C24.4958 32.3307 24.3403 32.1343 24.177 31.9283C24.0137 31.7183 23.8581 31.5142 23.7104 31.3159Z" fill="#FF9350"/>
<path d="M32.6851 29.3328L32.4576 29.8519C32.2982 29.7936 32.1388 29.7469 31.9794 29.712C31.8238 29.677 31.6741 29.6595 31.5303 29.6595C31.2853 29.6595 31.0889 29.71 30.9412 29.8111C30.7973 29.9122 30.7254 30.0405 30.7254 30.196C30.7254 30.3282 30.7779 30.4352 30.8829 30.5168C30.9878 30.5946 31.1181 30.6665 31.2736 30.7326C31.4292 30.7948 31.5983 30.859 31.7811 30.9251C31.9638 30.9873 32.1329 31.069 32.2885 31.1701C32.444 31.2711 32.5743 31.3995 32.6792 31.555C32.7842 31.7066 32.8367 31.903 32.8367 32.1441C32.8367 32.3307 32.8017 32.4998 32.7317 32.6515C32.6656 32.7992 32.5645 32.9276 32.4285 33.0364C32.2962 33.1453 32.1291 33.2289 31.9269 33.2872C31.7286 33.3455 31.4953 33.3747 31.227 33.3747C31.0559 33.3747 30.9004 33.363 30.7604 33.3397C30.6243 33.3164 30.4999 33.2872 30.3871 33.2522C30.2782 33.2133 30.181 33.1725 30.0955 33.1297C30.0138 33.087 29.9438 33.0481 29.8855 33.0131L30.1655 32.459C30.321 32.5484 30.494 32.6204 30.6846 32.6748C30.8751 32.7293 31.0481 32.7565 31.2036 32.7565C31.2814 32.7565 31.3767 32.7467 31.4894 32.7273C31.6061 32.7079 31.7169 32.6748 31.8219 32.6282C31.9269 32.5776 32.0163 32.5115 32.0902 32.4299C32.1679 32.3482 32.2068 32.2452 32.2068 32.1207C32.2068 32.008 32.1757 31.9127 32.1135 31.8349C32.0552 31.7533 31.9755 31.6833 31.8744 31.625C31.7772 31.5628 31.6644 31.5083 31.5361 31.4617C31.4117 31.4111 31.2834 31.3606 31.1512 31.31C31.019 31.2556 30.8887 31.1992 30.7604 31.1409C30.636 31.0826 30.5232 31.0126 30.4221 30.9309C30.3249 30.8454 30.2452 30.7482 30.183 30.6393C30.1247 30.5265 30.0955 30.3924 30.0955 30.2369C30.0955 30.093 30.1247 29.9511 30.183 29.8111C30.2413 29.6711 30.3288 29.5467 30.4454 29.4378C30.5621 29.329 30.7059 29.2415 30.877 29.1754C31.052 29.1093 31.2542 29.0762 31.4836 29.0762C31.6236 29.0762 31.7597 29.0879 31.8919 29.1112C32.028 29.1345 32.1504 29.1618 32.2593 29.1929C32.3682 29.2201 32.4596 29.2473 32.5334 29.2745C32.6112 29.3017 32.6618 29.3212 32.6851 29.3328Z" fill="#FF9350"/>
<path d="M34.3913 32.1324C34.3913 31.9535 34.4244 31.7863 34.4905 31.6308C34.5605 31.4714 34.6538 31.3334 34.7704 31.2167C34.8871 31.0962 35.0212 31.0009 35.1729 30.9309C35.3284 30.8609 35.4937 30.8259 35.6686 30.8259C35.7853 30.8259 35.8922 30.8415 35.9894 30.8726C36.0866 30.8998 36.1702 30.9348 36.2402 30.9776C36.3102 31.0204 36.3666 31.0651 36.4093 31.1117C36.4521 31.1584 36.4813 31.1992 36.4968 31.2342L36.5202 30.8901H36.9984V33.328H36.4968V33.0189C36.4774 33.05 36.4463 33.087 36.4035 33.1297C36.3607 33.1725 36.3044 33.2133 36.2344 33.2522C36.1683 33.2872 36.0886 33.3183 35.9952 33.3455C35.9019 33.3728 35.795 33.3864 35.6745 33.3864C35.4878 33.3864 35.3148 33.3533 35.1554 33.2872C34.9998 33.2172 34.8657 33.1259 34.7529 33.0131C34.6402 32.8964 34.5508 32.7623 34.4846 32.6107C34.4224 32.459 34.3913 32.2996 34.3913 32.1324ZM34.8929 32.1032C34.8929 32.216 34.9124 32.321 34.9512 32.4182C34.994 32.5154 35.0504 32.599 35.1204 32.669C35.1904 32.739 35.274 32.7954 35.3712 32.8381C35.4684 32.877 35.5753 32.8964 35.692 32.8964C35.8086 32.8964 35.9155 32.877 36.0127 32.8381C36.1138 32.7954 36.1994 32.739 36.2694 32.669C36.3432 32.5951 36.3996 32.5115 36.4385 32.4182C36.4774 32.321 36.4968 32.216 36.4968 32.1032C36.4968 31.9905 36.4774 31.8874 36.4385 31.7941C36.3996 31.6969 36.3432 31.6133 36.2694 31.5433C36.1994 31.4733 36.1138 31.4189 36.0127 31.38C35.9155 31.3372 35.8086 31.3159 35.692 31.3159C35.5753 31.3159 35.4684 31.3372 35.3712 31.38C35.274 31.4189 35.1904 31.4733 35.1204 31.5433C35.0504 31.6133 34.994 31.6969 34.9512 31.7941C34.9124 31.8874 34.8929 31.9905 34.8929 32.1032Z" fill="#FF9350"/>
<path d="M38.6845 31.3742V30.8843H39.0986V30.3185C39.0986 29.8092 39.2172 29.432 39.4544 29.187C39.6954 28.9382 40.0357 28.8079 40.475 28.7963V29.2745C40.1717 29.2901 39.9501 29.3873 39.8101 29.5661C39.6702 29.745 39.6002 29.9997 39.6002 30.3302V30.8843H40.37V31.3742H39.6002V33.328H39.0986V31.3742H38.6845Z" fill="#FF9350"/>
<path d="M43.9831 33.0423C43.8664 33.1472 43.7245 33.2308 43.5573 33.293C43.3901 33.3553 43.219 33.3864 43.0441 33.3864C42.8652 33.3864 42.6961 33.3533 42.5367 33.2872C42.3811 33.2172 42.245 33.1259 42.1284 33.0131C42.0117 32.8964 41.9184 32.7604 41.8484 32.6048C41.7823 32.4493 41.7493 32.284 41.7493 32.1091C41.7493 31.9341 41.7823 31.7688 41.8484 31.6133C41.9184 31.4578 42.0117 31.3217 42.1284 31.205C42.245 31.0884 42.3792 30.997 42.5308 30.9309C42.6864 30.8609 42.8516 30.8259 43.0266 30.8259C43.3026 30.8259 43.5418 30.9095 43.744 31.0767C43.95 31.24 44.0978 31.4558 44.1872 31.7241C44.0667 31.7669 43.9287 31.8194 43.7731 31.8816C43.6176 31.9438 43.4562 32.0099 43.289 32.0799C43.1218 32.146 42.9546 32.2121 42.7874 32.2782C42.6202 32.3443 42.4647 32.4046 42.3209 32.459C42.387 32.5912 42.4822 32.6981 42.6066 32.7798C42.735 32.8576 42.8769 32.8964 43.0324 32.8964C43.1374 32.8964 43.2424 32.877 43.3474 32.8381C43.4562 32.7992 43.5437 32.7467 43.6098 32.6806L43.9831 33.0423ZM43.5632 31.6075C43.5165 31.5103 43.4426 31.4383 43.3415 31.3917C43.2404 31.3411 43.1374 31.3159 43.0324 31.3159C42.9196 31.3159 42.8147 31.3372 42.7175 31.38C42.6241 31.4228 42.5425 31.4811 42.4725 31.555C42.4025 31.625 42.3461 31.7066 42.3034 31.8C42.2645 31.8933 42.245 31.9885 42.245 32.0857C42.245 32.1052 42.245 32.1188 42.245 32.1266C42.2489 32.1343 42.2509 32.1402 42.2509 32.1441C42.352 32.1052 42.4608 32.0624 42.5775 32.0158C42.698 31.9652 42.8166 31.9166 42.9333 31.8699C43.0499 31.8194 43.1627 31.7727 43.2715 31.73C43.3804 31.6833 43.4776 31.6425 43.5632 31.6075Z" fill="#FF9350"/>
<path d="M48.5228 29.0995H49.5843C50.012 29.0995 50.3736 29.1637 50.6691 29.292C50.9646 29.4203 51.2038 29.5895 51.3865 29.7994C51.5731 30.0055 51.7073 30.2388 51.7889 30.4993C51.8745 30.756 51.9173 31.0126 51.9173 31.2692C51.9173 31.5842 51.8609 31.8699 51.7481 32.1266C51.6354 32.3793 51.4818 32.5951 51.2874 32.774C51.0929 32.9528 50.8674 33.0909 50.6108 33.1881C50.3542 33.2814 50.082 33.328 49.7943 33.328H48.5228V29.0995ZM49.7009 32.7215C49.9265 32.7215 50.1345 32.6884 50.325 32.6223C50.5194 32.5562 50.6866 32.461 50.8266 32.3365C50.9705 32.2082 51.0813 32.0527 51.159 31.8699C51.2407 31.6833 51.2815 31.4695 51.2815 31.2284C51.2815 30.9718 51.2368 30.7482 51.1474 30.5577C51.0579 30.3671 50.9413 30.2097 50.7974 30.0852C50.6536 29.9569 50.4903 29.8636 50.3075 29.8053C50.1287 29.7431 49.9459 29.712 49.7593 29.712H49.1585V32.7215H49.7009Z" fill="#FF9350"/>
<path d="M55.6807 33.0423C55.5641 33.1472 55.4221 33.2308 55.2549 33.293C55.0877 33.3553 54.9167 33.3864 54.7417 33.3864C54.5628 33.3864 54.3937 33.3533 54.2343 33.2872C54.0787 33.2172 53.9426 33.1259 53.826 33.0131C53.7094 32.8964 53.616 32.7604 53.546 32.6048C53.4799 32.4493 53.4469 32.284 53.4469 32.1091C53.4469 31.9341 53.4799 31.7688 53.546 31.6133C53.616 31.4578 53.7094 31.3217 53.826 31.205C53.9426 31.0884 54.0768 30.997 54.2284 30.9309C54.384 30.8609 54.5492 30.8259 54.7242 30.8259C55.0003 30.8259 55.2394 30.9095 55.4416 31.0767C55.6477 31.24 55.7954 31.4558 55.8848 31.7241C55.7643 31.7669 55.6263 31.8194 55.4707 31.8816C55.3152 31.9438 55.1538 32.0099 54.9867 32.0799C54.8195 32.146 54.6523 32.2121 54.4851 32.2782C54.3179 32.3443 54.1623 32.4046 54.0185 32.459C54.0846 32.5912 54.1798 32.6981 54.3043 32.7798C54.4326 32.8576 54.5745 32.8964 54.73 32.8964C54.835 32.8964 54.94 32.877 55.045 32.8381C55.1538 32.7992 55.2413 32.7467 55.3074 32.6806L55.6807 33.0423ZM55.2608 31.6075C55.2141 31.5103 55.1402 31.4383 55.0391 31.3917C54.938 31.3411 54.835 31.3159 54.73 31.3159C54.6173 31.3159 54.5123 31.3372 54.4151 31.38C54.3218 31.4228 54.2401 31.4811 54.1701 31.555C54.1001 31.625 54.0437 31.7066 54.001 31.8C53.9621 31.8933 53.9426 31.9885 53.9426 32.0857C53.9426 32.1052 53.9426 32.1188 53.9426 32.1266C53.9465 32.1343 53.9485 32.1402 53.9485 32.1441C54.0496 32.1052 54.1584 32.0624 54.2751 32.0158C54.3956 31.9652 54.5142 31.9166 54.6309 31.8699C54.7475 31.8194 54.8603 31.7727 54.9692 31.73C55.078 31.6833 55.1752 31.6425 55.2608 31.6075Z" fill="#FF9350"/>
<path d="M58.013 33.328H57.5173V28.7963H58.013V33.328Z" fill="#FF9350"/>
<path d="M59.8504 29.9569C59.8504 29.8636 59.8835 29.7858 59.9496 29.7236C60.0196 29.6614 60.0934 29.6303 60.1712 29.6303C60.249 29.6303 60.3209 29.6614 60.387 29.7236C60.4531 29.7858 60.4862 29.8636 60.4862 29.9569C60.4862 30.0502 60.4531 30.128 60.387 30.1902C60.3209 30.2485 60.249 30.2777 60.1712 30.2777C60.0934 30.2777 60.0196 30.2485 59.9496 30.1902C59.8835 30.128 59.8504 30.0502 59.8504 29.9569ZM60.4103 33.328H59.9146V30.8901H60.4103V33.328Z" fill="#FF9350"/>
<path d="M63.257 33.4739C63.0276 33.0384 62.8118 32.6087 62.6096 32.1849C62.4113 31.7572 62.2013 31.3256 61.9797 30.8901H62.5221C62.6621 31.1662 62.7729 31.3917 62.8546 31.5667C62.9401 31.7416 63.0082 31.8874 63.0587 32.0041C63.1092 32.1207 63.1481 32.2199 63.1753 32.3015C63.2026 32.3793 63.2298 32.459 63.257 32.5407C63.2881 32.459 63.3173 32.3793 63.3445 32.3015C63.3756 32.2199 63.4145 32.1207 63.4611 32.0041C63.5117 31.8874 63.5778 31.7416 63.6594 31.5667C63.745 31.3917 63.8577 31.1662 63.9977 30.8901H64.5401C64.3185 31.3256 64.1046 31.7572 63.8986 32.1849C63.6925 32.6087 63.4786 33.0384 63.257 33.4739Z" fill="#FF9350"/>
<path d="M68.0785 33.0423C67.9618 33.1472 67.8199 33.2308 67.6527 33.293C67.4855 33.3553 67.3144 33.3864 67.1394 33.3864C66.9606 33.3864 66.7914 33.3533 66.632 33.2872C66.4765 33.2172 66.3404 33.1259 66.2237 33.0131C66.1071 32.8964 66.0138 32.7604 65.9438 32.6048C65.8777 32.4493 65.8446 32.284 65.8446 32.1091C65.8446 31.9341 65.8777 31.7688 65.9438 31.6133C66.0138 31.4578 66.1071 31.3217 66.2237 31.205C66.3404 31.0884 66.4745 30.997 66.6262 30.9309C66.7817 30.8609 66.947 30.8259 67.1219 30.8259C67.398 30.8259 67.6371 30.9095 67.8393 31.0767C68.0454 31.24 68.1932 31.4558 68.2826 31.7241C68.162 31.7669 68.024 31.8194 67.8685 31.8816C67.713 31.9438 67.5516 32.0099 67.3844 32.0799C67.2172 32.146 67.05 32.2121 66.8828 32.2782C66.7156 32.3443 66.5601 32.4046 66.4162 32.459C66.4823 32.5912 66.5776 32.6981 66.702 32.7798C66.8303 32.8576 66.9722 32.8964 67.1278 32.8964C67.2327 32.8964 67.3377 32.877 67.4427 32.8381C67.5516 32.7992 67.6391 32.7467 67.7052 32.6806L68.0785 33.0423ZM67.6585 31.6075C67.6119 31.5103 67.538 31.4383 67.4369 31.3917C67.3358 31.3411 67.2327 31.3159 67.1278 31.3159C67.015 31.3159 66.91 31.3372 66.8128 31.38C66.7195 31.4228 66.6378 31.4811 66.5679 31.555C66.4979 31.625 66.4415 31.7066 66.3987 31.8C66.3598 31.8933 66.3404 31.9885 66.3404 32.0857C66.3404 32.1052 66.3404 32.1188 66.3404 32.1266C66.3443 32.1343 66.3462 32.1402 66.3462 32.1441C66.4473 32.1052 66.5562 32.0624 66.6728 32.0158C66.7934 31.9652 66.912 31.9166 67.0286 31.8699C67.1453 31.8194 67.258 31.7727 67.3669 31.73C67.4758 31.6833 67.573 31.6425 67.6585 31.6075Z" fill="#FF9350"/>
<path d="M71.2506 31.4675C71.1418 31.4675 71.0368 31.4831 70.9357 31.5142C70.8346 31.5414 70.7432 31.5842 70.6616 31.6425C70.5838 31.7008 70.5216 31.7747 70.4749 31.8641C70.4283 31.9497 70.4049 32.0488 70.4049 32.1616V33.328H69.9092V30.8901H70.3466C70.3544 31.0106 70.3602 31.1215 70.3641 31.2225C70.3719 31.3198 70.3797 31.417 70.3874 31.5142C70.438 31.4092 70.5041 31.3139 70.5857 31.2284C70.6674 31.1428 70.7549 31.0709 70.8482 31.0126C70.9415 30.9543 71.0329 30.9095 71.1223 30.8784C71.2118 30.8434 71.2915 30.8259 71.3615 30.8259L71.2506 31.4675Z" fill="#FF9350"/>
<path d="M73.5868 34.5004H73.0852C73.1396 34.3876 73.1902 34.2787 73.2368 34.1737C73.2874 34.0726 73.336 33.9677 73.3827 33.8588C73.4332 33.7538 73.4837 33.643 73.5343 33.5263C73.5848 33.4136 73.6412 33.2911 73.7034 33.1589C73.614 32.9839 73.5226 32.8012 73.4293 32.6107C73.336 32.4162 73.2427 32.2218 73.1494 32.0274C73.056 31.833 72.9627 31.6386 72.8694 31.4442C72.78 31.2498 72.6905 31.0651 72.6011 30.8901H73.1435C73.2835 31.1662 73.3982 31.3995 73.4876 31.59C73.5809 31.7805 73.6568 31.9458 73.7151 32.0857C73.7773 32.2218 73.8259 32.3385 73.8609 32.4357C73.8998 32.5329 73.9328 32.6223 73.9601 32.704C73.9912 32.6223 74.0242 32.5329 74.0592 32.4357C74.0981 32.3385 74.1467 32.2218 74.205 32.0857C74.2672 31.9458 74.3431 31.7805 74.4325 31.59C74.5258 31.3995 74.6424 31.1662 74.7824 30.8901H75.3248L73.5868 34.5004Z" fill="#FF9350"/>
<path d="M47.0862 20.5322C47.0862 20.1173 46.9397 19.7999 46.6468 19.5802C46.3539 19.3557 45.8266 19.1213 45.065 18.8772C44.3034 18.6282 43.7005 18.3841 43.2563 18.1449C42.0455 17.4907 41.4401 16.6095 41.4401 15.5013C41.4401 14.9252 41.6012 14.4126 41.9235 13.9634C42.2506 13.5094 42.7168 13.1555 43.3222 12.9016C43.9324 12.6477 44.6159 12.5208 45.3726 12.5208C46.1342 12.5208 46.8128 12.6599 47.4084 12.9382C48.004 13.2116 48.4654 13.5997 48.7925 14.1026C49.1245 14.6054 49.2904 15.1766 49.2904 15.8162H47.0935C47.0935 15.328 46.9397 14.9496 46.6322 14.6811C46.3246 14.4077 45.8926 14.271 45.336 14.271C44.799 14.271 44.3816 14.3857 44.0838 14.6152C43.786 14.8398 43.637 15.1376 43.637 15.5086C43.637 15.8552 43.8104 16.1457 44.157 16.3801C44.5085 16.6144 45.0235 16.8341 45.7022 17.0391C46.952 17.415 47.8625 17.8813 48.4337 18.4378C49.0048 18.9944 49.2904 19.6876 49.2904 20.5176C49.2904 21.4403 48.9414 22.1653 48.2433 22.6925C47.5451 23.2149 46.6053 23.4761 45.4239 23.4761C44.6037 23.4761 43.8567 23.3272 43.183 23.0294C42.5093 22.7267 41.9942 22.3142 41.6379 21.7918C41.2863 21.2694 41.1106 20.664 41.1106 19.9757H43.3148C43.3148 21.1522 44.0178 21.7405 45.4239 21.7405C45.9463 21.7405 46.3539 21.6356 46.6468 21.4256C46.9397 21.2108 47.0862 20.913 47.0862 20.5322Z" fill="#898989"/>
<path d="M52.7103 16.2702C53.2717 15.5965 53.9772 15.2596 54.8267 15.2596C56.5452 15.2596 57.4166 16.258 57.441 18.2548V23.3296H55.3246V18.3133C55.3246 17.8593 55.227 17.5249 55.0317 17.3101C54.8364 17.0904 54.5118 16.9805 54.0578 16.9805C53.4377 16.9805 52.9886 17.2198 52.7103 17.6982V23.3296H50.594V12.0814H52.7103V16.2702Z" fill="#898989"/>
<path d="M58.7079 19.2946C58.7079 18.5086 58.8592 17.808 59.1619 17.1929C59.4646 16.5778 59.8991 16.1018 60.4654 15.7649C61.0366 15.4281 61.6981 15.2596 62.45 15.2596C63.5191 15.2596 64.3906 15.5867 65.0643 16.2409C65.7429 16.8951 66.1213 17.7836 66.1994 18.9065L66.214 19.4484C66.214 20.664 65.8747 21.6404 65.1961 22.3776C64.5175 23.1099 63.607 23.4761 62.4646 23.4761C61.3222 23.4761 60.4093 23.1099 59.7258 22.3776C59.0472 21.6453 58.7079 20.6494 58.7079 19.3898V19.2946ZM60.8243 19.4484C60.8243 20.2002 60.9658 20.7763 61.249 21.1767C61.5322 21.5721 61.9374 21.7698 62.4646 21.7698C62.9772 21.7698 63.3776 21.5745 63.6656 21.184C63.9536 20.7885 64.0977 20.1587 64.0977 19.2946C64.0977 18.5574 63.9536 17.9862 63.6656 17.581C63.3776 17.1758 62.9724 16.9732 62.45 16.9732C61.9325 16.9732 61.5322 17.1758 61.249 17.581C60.9658 17.9814 60.8243 18.6038 60.8243 19.4484Z" fill="#898989"/>
<path d="M74.6502 19.4411C74.6502 20.6616 74.3719 21.6404 73.8154 22.3776C73.2637 23.1099 72.5167 23.4761 71.5745 23.4761C70.7738 23.4761 70.127 23.1978 69.6339 22.6413V26.376H67.5175V15.4061H69.4801L69.5533 16.1823C70.066 15.5672 70.7348 15.2596 71.5599 15.2596C72.5363 15.2596 73.2954 15.6209 73.8373 16.3434C74.3792 17.066 74.6502 18.0619 74.6502 19.3312V19.4411ZM72.5338 19.2873C72.5338 18.5501 72.402 17.9814 72.1384 17.581C71.8796 17.1807 71.5013 16.9805 71.0033 16.9805C70.3393 16.9805 69.8829 17.2344 69.6339 17.7421V20.9863C69.8926 21.5086 70.354 21.7698 71.018 21.7698C72.0285 21.7698 72.5338 20.9423 72.5338 19.2873Z" fill="#898989"/>
<path d="M83.5151 23.7C83.5151 23.4355 83.6023 23.221 83.7765 23.0562C83.9545 22.8914 84.1761 22.809 84.4413 22.809C84.7102 22.809 84.9318 22.8914 85.1061 23.0562C85.2841 23.221 85.3731 23.4355 85.3731 23.7C85.3731 23.9605 85.286 24.1732 85.1117 24.338C84.9375 24.4989 84.714 24.5794 84.4413 24.5794C84.1723 24.5794 83.9507 24.4989 83.7765 24.338C83.6023 24.1732 83.5151 23.9605 83.5151 23.7Z" fill="#898989"/>
<path d="M88.5492 24.5162H86.9015V18.2967H88.5492V24.5162ZM86.8049 16.6873C86.8049 16.4382 86.8864 16.2332 87.0492 16.0722C87.2159 15.9113 87.4413 15.8308 87.7254 15.8308C88.0057 15.8308 88.2292 15.9113 88.3958 16.0722C88.5625 16.2332 88.6458 16.4382 88.6458 16.6873C88.6458 16.9402 88.5606 17.1471 88.3902 17.3081C88.2235 17.469 88.0019 17.5495 87.7254 17.5495C87.4489 17.5495 87.2254 17.469 87.0549 17.3081C86.8883 17.1471 86.8049 16.9402 86.8049 16.6873Z" fill="#898989"/>
<path d="M91.4186 18.2967L91.4697 19.0153C91.9091 18.4596 92.4981 18.1818 93.2368 18.1818C93.8883 18.1818 94.3731 18.3753 94.6913 18.7623C95.0095 19.1494 95.1724 19.728 95.1799 20.4983V24.5162H93.5379V20.5385C93.5379 20.186 93.4621 19.9311 93.3106 19.774C93.1591 19.6131 92.9072 19.5326 92.5549 19.5326C92.0928 19.5326 91.7462 19.7319 91.5152 20.1304V24.5162H89.8731V18.2967H91.4186Z" fill="#898989"/>
</svg>
